<?xml version="1.0" encoding="UTF-8"?>
<svg id="Layer_2" data-name="Layer 2" xmlns="http://www.w3.org/2000/svg" viewBox="0 0 15.07 15.61">
  <defs>
    <style>
      .cls-1 {
        fill: #00b737;
        stroke-width: 0px;
      }
    </style>
  </defs>
  <g id="Layer_1-2" data-name="Layer 1">
    <g>
      <path class="cls-1" d="M4.36,4.3c-1.94,2.28-2.49,4.43-2.1,6.84.01.06.03.13.04.19.06.35.21.8-.27.91-.48.1-.55-.34-.63-.7-.37-1.72-.24-3.4.42-5.02,1.02-2.47,2.88-4.11,5.28-5.17C9.29.37,11.62.05,14.01,0c.47,0,.73.12.8.63.46,3.2.43,6.34-.98,9.35-1.47,3.14-4.76,5.21-8.14,5.06-.4-.02-1,.08-.95-.55.04-.55.59-.39.96-.39,3.65-.03,6.54-2.1,7.73-5.61.76-2.25.84-4.57.55-6.91-.04-.34-.07-.65-.55-.63-3.57.18-6.89.96-9.07,3.33Z"/>
      <path class="cls-1" d="M6.8,10.08c-1.13,1.19-2.27,2.94-3.86,4.29-.66.56-1.42.95-2.25,1.18-.25.07-.55.12-.66-.22-.1-.3.05-.54.33-.62,2.24-.67,3.4-2.59,4.81-4.21,1.49-1.71,2.92-3.46,4.39-5.19.26-.31.56-.81,1.02-.4.41.37-.04.71-.27,1-1.07,1.29-2.16,2.56-3.51,4.16Z"/>
    </g>
  </g>
</svg>