<?xml version="1.0" encoding="UTF-8"?>
<svg id="Layer_2" data-name="Layer 2" xmlns="http://www.w3.org/2000/svg" viewBox="0 0 16 13.48">
  <defs>
    <style>
      .cls-1 {
        fill: #00b737;
        stroke-width: 0px;
      }
    </style>
  </defs>
  <g id="Layer_1-2" data-name="Layer 1">
    <g>
      <path class="cls-1" d="M8.32,6.87c0,1,0,2,0,3,0,.12,0,.3.08.36.17.12.27-.07.37-.16.99-.85,2.11-1.44,3.37-1.78.15-.04.29-.08.44-.11.2-.03.42-.06.47.21.05.25-.13.34-.34.39-.8.2-1.59.46-2.3.89-.33.2-.65.43-.97.65-.81.57-1.34,1.28-1.13,2.35.03.17,0,.35-.01.52-.02.17-.13.28-.3.28-.18,0-.28-.13-.29-.3-.02-.39-.04-.78-.02-1.17.03-.43-.13-.74-.42-1.04-1.06-1.09-2.35-1.77-3.8-2.16-.24-.06-.61-.07-.5-.44.1-.35.44-.2.68-.14,1.3.33,2.49.89,3.52,1.77.12.1.22.33.42.23.19-.09.11-.31.11-.47,0-1.85,0-3.7.01-5.54,0-.11,0-.22,0-.33.02-.23-.04-.55.3-.55.34,0,.31.3.31.54,0,.76,0,1.52,0,2.28,0,.24,0,.48,0,.72Z"/>
      <path class="cls-1" d="M4.77,4.56c.03-1.15.79-2.4,1.88-3.46,1.5-1.45,1.18-1.49,2.68,0,.92.91,1.66,1.96,1.85,3.3.25,1.79-.6,3.14-1.74,4.38-.13.14-.3.22-.46.08-.14-.13-.13-.31,0-.47.29-.38.61-.74.87-1.14,1.03-1.58,1.01-3.08-.06-4.62-.42-.61-.9-1.17-1.46-1.66-.24-.21-.42-.23-.67,0-.79.73-1.5,1.51-1.95,2.5-.55,1.21-.42,2.37.23,3.49.28.49.63.94,1.01,1.36.14.16.22.35.04.52-.19.19-.35.02-.5-.11-.97-.84-1.73-2.51-1.73-4.19Z"/>
      <path class="cls-1" d="M4.39,11.79c-1.08.06-1.96-.42-2.7-1.17-.76-.77-1.25-1.71-1.64-2.71-.11-.28-.04-.45.19-.6,1.06-.67,2.18-1.17,3.45-1.25.25-.02.61-.07.64.27.04.42-.35.35-.62.36-.98.04-1.85.43-2.69.89-.26.14-.32.29-.2.58.37.87.86,1.66,1.58,2.29.79.69,1.73.87,2.74.68.23-.04.47-.1.7-.17.21-.06.41-.07.48.17.07.23-.1.36-.31.42-.52.16-1.05.28-1.62.26Z"/>
      <path class="cls-1" d="M11.51,11.79c-.5.02-1-.1-1.51-.25-.22-.07-.43-.18-.33-.46.09-.23.29-.18.5-.14,2.56.49,3.95-.28,4.96-2.7.15-.36.09-.56-.24-.73-.84-.43-1.69-.8-2.65-.83-.25,0-.59.04-.57-.35.02-.33.34-.28.57-.27,1.3.06,2.44.56,3.51,1.26.21.14.29.31.19.55-.51,1.29-1.16,2.49-2.33,3.31-.63.44-1.32.64-2.12.61Z"/>
    </g>
  </g>
</svg>