<svg width="672" height="72" viewBox="0 0 672 72" fill="none" xmlns="http://www.w3.org/2000/svg">
<g clip-path="url(#clip0_115_344)">
<path d="M659.88 52.4586C659.94 53.1186 659.86 53.5486 660.03 53.7286C660.21 53.9186 660.65 53.9686 660.95 53.9286C662.17 53.7286 663.37 53.4686 665.06 53.1386C664.55 54.2486 664 54.8886 664.06 55.4686C664.13 56.1686 664.71 56.8286 665.23 57.8086C662.91 59.0586 660.46 60.0286 658.45 61.5686C657.01 62.6786 655.56 62.5686 654.3 62.2786C650.56 61.4186 646.86 60.2986 643.28 58.9386C642.64 58.6986 640.71 58.9486 640.99 57.0786C641.02 56.9086 640.28 56.3786 639.97 56.4286C636.78 56.9486 634.11 55.5586 631.36 54.1186C630.45 51.4786 630.93 48.9286 633.56 47.5586C635.71 46.4386 638.07 45.4486 640.69 47.3286C641.96 48.2386 643.99 48.3486 645.67 48.3486C647.28 48.3486 647.83 51.1786 649.79 49.6786C653.163 51.492 656.53 52.422 659.89 52.4686L659.88 52.4586Z" fill="black"/>
<path d="M671.08 28.5486C668.46 29.9186 665.99 31.1786 663.54 32.4986C662.59 33.0086 661.46 33.4486 660.83 34.2486C659.84 35.4986 658.66 35.4586 657.33 35.5086C656.09 35.5586 654.71 34.9486 653.64 36.2486C653.47 36.4586 652.46 36.2286 652.02 35.9386C650.93 35.2186 649.95 35.1586 648.96 36.0386C648.84 36.1486 648.73 36.3586 648.61 36.3786C644.79 36.7586 640.98 37.2386 637.15 37.4286C634.69 37.5586 633.47 36.0986 634.13 33.7686C634.53 32.3686 634.56 30.1286 637.14 30.4786C637.39 30.5086 637.79 30.2986 637.94 30.0786C639.88 27.2886 643.25 27.4686 645.95 26.6786C649.42 25.6686 653.23 25.7286 656.91 25.5486C660.76 25.3586 664.67 25.9186 668.08 24.0786C669.17 25.6986 669.94 26.8586 671.08 28.5486Z" fill="black"/>
<path d="M631.52 24.9985C630.83 22.7485 630.63 21.0885 632.32 19.7485C633.83 18.5485 633.28 16.0985 635.7 15.1385C637.28 14.5085 638.47 12.4885 639.88 11.1285C641.96 9.13854 644.06 7.17854 645.64 4.62854C647.04 2.35854 649.59 1.09854 652.24 0.508545C654.43 2.63855 653.95 5.25854 654.01 8.35854C652.07 9.90854 649.99 11.9385 647.55 13.3785C645.93 14.3285 645.2 16.1385 643.07 16.7585C641.55 17.1985 640.3 19.2285 638.82 20.4785C636.58 22.3685 633.68 22.7185 631.51 24.9985H631.52Z" fill="black"/>
</g>
<g clip-path="url(#clip1_115_344)">
<path d="M41.3301 42.1185C37.9101 44.0285 35.0801 45.6085 32.1001 47.2685C29.1201 45.7085 25.6901 46.1485 22.4101 46.7085C21.5701 46.8485 20.4101 45.8485 19.4201 47.2385C18.9801 47.8585 16.9101 47.4485 15.6001 47.3085C14.3601 47.1785 12.9401 47.9385 11.9101 46.6485C9.69009 47.7385 7.31009 47.2085 5.00009 47.3485C3.47009 47.4385 1.96009 47.3685 1.17009 45.8485C0.510089 44.5785 1.31009 42.1985 2.87009 41.1585C6.36009 38.8385 10.0201 37.0785 14.3301 39.0985C14.6101 39.2285 14.9401 39.2385 15.2101 39.3785C16.6501 40.0985 17.8401 38.3185 19.4701 39.1185C20.6601 39.7085 22.2101 39.7385 23.5201 38.5585C23.9801 38.1385 25.0901 38.3985 25.9001 38.3885C26.8901 38.3685 27.8901 38.4085 28.8801 38.3785C29.8501 38.3485 31.3201 38.6085 31.6801 38.1085C32.6001 36.8185 33.1601 38.5685 33.9001 38.0885C35.3601 37.1285 36.7601 38.4185 38.1401 38.5985C39.2501 38.7485 40.1301 40.6985 41.3501 42.1285L41.3301 42.1185Z" fill="black"/>
<path d="M34.5601 33.3884C31.7301 31.6584 28.6701 30.5884 26.8401 28.4584C24.5401 25.7684 21.5401 24.4084 18.8601 22.4584C17.3301 21.3384 15.9001 20.0184 14.2201 19.2184C12.5601 18.4284 14.3901 17.1084 13.4901 16.2684C13.3901 16.1684 14.0201 15.0284 14.5101 14.6084C15.2001 14.0184 16.0701 13.6084 16.9001 13.1784C17.4401 12.8984 18.2001 12.3684 18.5801 12.5484C21.1401 13.7484 24.6001 13.3084 26.0701 16.5484C26.2301 16.9084 26.6101 17.3984 26.9301 17.4384C30.4601 17.8584 31.7901 21.0584 33.9501 23.1284C34.4001 23.5584 34.3301 24.6184 35.4001 24.4484C37.0801 24.1784 37.7101 25.5984 38.5101 26.5084C39.6301 27.7784 39.1301 30.2185 37.7201 31.1985C37.2301 31.5385 36.5401 31.5984 36.0501 31.9384C35.5101 32.3084 35.0901 32.8584 34.5501 33.3884H34.5601Z" fill="black"/>
<path d="M44.0197 53.8184C41.1697 55.4184 38.3897 57.2384 35.8597 59.1884C29.8997 63.7884 24.0897 68.4984 16.8297 71.2084C14.1497 70.2084 15.3197 67.7784 14.9897 65.2784C18.4997 62.7284 22.4397 60.2784 25.8597 57.2384C29.0897 54.3684 33.4297 53.5584 36.5997 50.5284C38.2097 48.9984 41.1197 48.8384 44.6797 47.6484C42.0697 50.3284 44.4497 51.9584 44.0197 53.8184Z" fill="black"/>
</g>
<defs>
<clipPath id="clip0_115_344">
<rect width="40.16" height="61.97" fill="white" transform="translate(630.92 0.508545)"/>
</clipPath>
<clipPath id="clip1_115_344">
<rect width="43.76" height="58.7" fill="white" transform="translate(0.919922 12.5085)"/>
</clipPath>
</defs>
</svg>
