<?xml version="1.0" encoding="UTF-8"?>
<svg id="Layer_2" data-name="Layer 2" xmlns="http://www.w3.org/2000/svg" viewBox="0 0 803 360.17">
  <defs>
    <style>
      .cls-1 {
        fill: #ed1c24;
      }

      .cls-1, .cls-2, .cls-3 {
        stroke-width: 0px;
      }

      .cls-2 {
        fill: #000;
      }

      .cls-3 {
        fill: #ec1e27;
      }

      .cls-4 {
        opacity: .95;
      }
    </style>
  </defs>
  <g id="WISE_BUYS" data-name="WISE BUYS">
    <g id="EXAM_2_PAIRS_6995" data-name="EXAM 2 PAIRS 6995">
      <g class="cls-4">
        <path class="cls-2" d="M36.34,9.49v9.36H15.21v8.58h19.96v9.36H15.21v9.36h22.3v9.36H5.07V9.49h31.27Z"/>
        <path class="cls-2" d="M52.26,9.49l9.75,17.23,10.34-17.23h12.03l-17.29,26.39v19.63h-10.14v-19.63l-17.29-26.39h12.61Z"/>
        <path class="cls-2" d="M119.41,9.49v9.36h-21.13v8.58h19.96v9.36h-19.96v9.36h22.3v9.36h-32.44V9.49h31.27Z"/>
        <path class="cls-2" d="M179.59,9.49v9.36h-21.13v8.58h19.96v9.36h-19.96v9.36h22.3v9.36h-32.44V9.49h31.27Z"/>
        <path class="cls-2" d="M197.86,9.49l9.82,16.12,9.43-16.12h12.29l-14.89,21.78,16.64,24.25h-12.74l-11.25-18.53-10.92,18.53h-12.03l16.12-24.05-15.21-21.97h12.74Z"/>
        <path class="cls-2" d="M259.35,9.49l20.02,46.02h-11.44l-3.97-9.75h-17.88l-3.84,9.75h-11.18l19.89-46.02h8.39ZM249.27,37.18h11.25l-5.65-14.3-5.59,14.3Z"/>
        <path class="cls-2" d="M299.32,9.49l10.6,30.03h.13l10.66-30.03h15.28v46.02h-10.14V20.21h-.13l-12.09,35.3h-7.74l-11.64-35.3h-.13v35.3h-10.14V9.49h15.34Z"/>
        <path class="cls-2" d="M385.64,18v13.72h13.72v8.19h-13.72v13.72h-8.19v-13.72h-13.72v-8.19h13.72v-13.72h8.19Z"/>
        <path class="cls-2" d="M34.91,91.55c0,5.85-2.08,8.91-7.02,13.2l-13,11.18h20.41v8.58H3.19v-10.33l17.88-16.06c3.25-2.93,4.1-4.42,4.1-6.44,0-2.99-2.67-5-5.65-5-3.32,0-5.66,2.27-5.98,5.85l-9.75-.71c.58-9.1,6.76-14.11,16.25-14.11,8.84,0,14.89,5.13,14.89,13.85Z"/>
        <path class="cls-2" d="M92.1,82.13l-6.96,7.61c-1.62-2.08-4.88-3.05-7.35-3.05-2.8,0-6.83,1.3-6.83,4.75,0,4.03,4.88,4.88,9.95,6.43,5.52,1.69,11.25,4.36,11.25,12.68,0,10.47-8.39,15.15-17.75,15.15-5.92,0-11.12-1.69-15.47-5.79l7.22-7.93c2.15,2.73,5.4,4.36,8.84,4.36,2.8,0,7.02-1.24,7.02-4.81,0-4.03-4.88-5.07-10.01-6.76-5.66-1.82-11.57-4.42-11.57-12.48,0-9.82,8.58-14.95,17.55-14.95,5.14,0,10.14,1.36,14.11,4.81Z"/>
        <path class="cls-2" d="M109.72,78.49v46.02h-10.14v-46.02h10.14Z"/>
        <path class="cls-2" d="M132.73,78.49l19.57,31.98h.13v-31.98h10.14v46.02h-13.26l-20.09-32.76h-.13v32.76h-10.14v-46.02h13.78Z"/>
        <path class="cls-2" d="M212.61,83.23l-7.15,7.8c-3.05-3.25-6.76-4.35-11.12-4.35-8.65,0-14.37,6.17-14.37,14.82s5.72,14.82,14.37,14.82c3.32,0,6.57-.71,9.49-2.28v-7.47h-8.25v-9.36h18.01v24.05c-5.98,3.18-12.55,4.42-19.24,4.42-14.5,0-24.9-9.36-24.9-24.18s10.4-24.18,24.9-24.18c6.76,0,13.26,1.36,18.27,5.92Z"/>
        <path class="cls-2" d="M233.02,78.49v36.66h18.79v9.36h-28.93v-46.02h10.14Z"/>
        <path class="cls-2" d="M289.05,78.49v9.36h-21.13v8.58h19.96v9.36h-19.96v9.36h22.3v9.36h-32.44v-46.02h31.27Z"/>
        <path class="cls-2" d="M324.6,78.49l11.38,30.16h.13l11.57-30.16h10.86l-18.98,46.02h-8.12l-18.4-46.02h11.57Z"/>
        <path class="cls-2" d="M373.35,78.49v46.02h-10.14v-46.02h10.14Z"/>
        <path class="cls-2" d="M412.29,82.13l-6.96,7.61c-1.62-2.08-4.88-3.05-7.34-3.05-2.79,0-6.83,1.3-6.83,4.75,0,4.03,4.88,4.88,9.95,6.43,5.53,1.69,11.25,4.36,11.25,12.68,0,10.47-8.38,15.15-17.75,15.15-5.92,0-11.12-1.69-15.47-5.79l7.21-7.93c2.15,2.73,5.4,4.36,8.84,4.36,2.79,0,7.02-1.24,7.02-4.81,0-4.03-4.88-5.07-10.01-6.76-5.66-1.82-11.57-4.42-11.57-12.48,0-9.82,8.58-14.95,17.55-14.95,5.14,0,10.14,1.36,14.11,4.81Z"/>
        <path class="cls-2" d="M429.9,78.49v46.02h-10.14v-46.02h10.14Z"/>
        <path class="cls-2" d="M486.32,101.5c0,14.62-10.4,24.18-24.83,24.18s-24.83-9.49-24.83-24.18,10.34-24.18,24.83-24.18,24.83,9.55,24.83,24.18ZM461.49,116.32c8.58,0,14.3-6.17,14.3-14.82s-5.72-14.82-14.37-14.82-14.24,6.11-14.24,14.82,5.66,14.82,14.3,14.82Z"/>
        <path class="cls-2" d="M506.99,78.49l19.57,31.98h.13v-31.98h10.14v46.02h-13.26l-20.09-32.76h-.13v32.76h-10.14v-46.02h13.78Z"/>
        <path class="cls-2" d="M582.85,78.49c11.05,0,17.16,4.49,17.16,13.98s-6.11,14.11-16.71,14.11h-7.74v17.94h-10.14v-46.02h17.42ZM582.52,97.99c4.03,0,6.96-1.76,6.96-5.53,0-3.58-2.73-5.4-8.45-5.4h-5.46v10.92h6.96Z"/>
        <path class="cls-2" d="M625.1,78.49l20.02,46.02h-11.44l-3.96-9.75h-17.88l-3.83,9.75h-11.18l19.89-46.02h8.38ZM615.02,106.18h11.25l-5.66-14.3-5.59,14.3Z"/>
        <path class="cls-2" d="M659.74,78.49v46.02h-10.14v-46.02h10.14Z"/>
        <path class="cls-2" d="M687.1,78.49c8.32,0,17.03,2.79,17.03,13.98,0,6.76-3.71,11.44-9.95,12.61l11.7,19.44h-12.16l-9.62-18.4h-5.01v18.4h-10.14v-46.02h18.14ZM685.42,97.53c4.68,0,8.19-.78,8.19-5.14,0-3.77-2.79-5.33-7.61-5.33h-6.89v10.47h6.31Z"/>
        <path class="cls-2" d="M740.8,82.13l-6.96,7.61c-1.62-2.08-4.88-3.05-7.34-3.05-2.79,0-6.83,1.3-6.83,4.75,0,4.03,4.88,4.88,9.95,6.43,5.53,1.69,11.25,4.36,11.25,12.68,0,10.47-8.38,15.15-17.75,15.15-5.92,0-11.12-1.69-15.47-5.79l7.21-7.93c2.15,2.73,5.4,4.36,8.84,4.36,2.79,0,7.02-1.24,7.02-4.81,0-4.03-4.88-5.07-10.01-6.76-5.66-1.82-11.57-4.42-11.57-12.48,0-9.82,8.58-14.95,17.55-14.95,5.14,0,10.14,1.36,14.11,4.81Z"/>
      </g>
      <g class="cls-4">
        <path class="cls-2" d="M22.76,164.04v4.86c6.04,0,11.45,1.67,14.85,4.37l-6.66,8.12c-2.22-1.94-5.2-2.78-8.19-2.91v11.03l6.52,1.87c6.52,1.94,10.2,6.45,10.2,12.63,0,8.53-6.24,14.64-16.72,15.68v4.86h-4.58v-4.86c-7.35,0-13.11-1.94-17.14-5.62l7.35-8.26c2.43,2.98,6.04,4.02,9.78,4.3v-11.73l-4.79-1.46c-7.49-2.29-11.03-6.24-11.03-13.04,0-7.63,6.18-13.81,15.82-14.99v-4.86h4.58ZM18.18,188.39v-9.71c-3.4.69-5,2.36-5,4.72,0,4.16,3.82,4.58,5,5ZM22.76,209.97c3.82-.76,5.9-2.57,5.9-5.13s-1.11-3.68-5.9-5.27v10.41Z"/>
        <path class="cls-2" d="M107.12,174.23v15.71l-33.68,68.55h-20.83l34.51-67.83h-41.65v-16.42h61.64Z"/>
        <path class="cls-2" d="M178.4,201.71c0,11.78-4.4,18.92-10.35,28.32l-18.21,28.44h-21.78l19.75-30.11c-1.9.48-3.93.83-5.95.83-15.59,0-26.3-11.9-26.3-27.49,0-17.61,14.28-28.92,31.42-28.92s31.42,11.07,31.42,28.92ZM146.98,215.64c7.74,0,13.57-5.36,13.57-13.21s-5.95-13.21-13.69-13.21-13.45,5.47-13.45,13.21,5.59,13.21,13.57,13.21Z"/>
        <path class="cls-2" d="M220.96,185.76c0,6.87-2.57,11.03-6.04,16.51l-10.62,16.58h-12.7l11.52-17.55c-1.11.28-2.29.49-3.47.49-9.09,0-15.33-6.94-15.33-16.03,0-10.27,8.33-16.86,18.32-16.86s18.32,6.45,18.32,16.86ZM202.64,193.88c4.51,0,7.91-3.12,7.91-7.7s-3.47-7.7-7.98-7.7-7.84,3.19-7.84,7.7,3.26,7.7,7.91,7.7Z"/>
        <path class="cls-2" d="M258.91,169.73v9.16h-19.5l-.21,7.56c1.18-.42,2.57-.55,4.3-.55,10.62,0,17.07,6.66,17.07,16.24,0,10.75-7.56,17.55-18.73,17.55-8.53,0-14.43-4.3-16.58-12.56l10.89-2.5c.55,3.54,3.05,5.9,6.73,5.9,4.09,0,7.29-2.84,7.29-7.35,0-5.27-4.02-8.12-11.31-8.12-3.33,0-6.8.62-10.2,1.8l.55-27.13h29.7Z"/>
      </g>
      <path class="cls-3" d="M289,219.19c-2.99,1.76-5.75,4.12-9.51.92-.81-.7-3.1-.2-4.56.2-10.01,2.75-19.94,5.68-29.95,8.43-4.58,1.26-9.24,2.31-13.91,3.26-1.76.37-3.89.7-5.42.09-2.09-.82-4.58-2.24-5.39-4-.59-1.28.68-4.18,2.09-5.26,4.6-3.57,9.62-6.69,14.53-9.9,1.48-.97,3.13-1.7,4.45-3.1-6.3,1.94-12.63,3.83-18.89,5.85-14.15,4.54-28.3,9.11-42.41,13.78-7.75,2.57-15.39,5.41-23.11,8.05-4.31,1.47-8.67,3.13-12.33-1.43-.37-.46-2.51-.11-3.54.4-8.1,4.09-16.07,8.39-24.19,12.43-7.57,3.76-15.23,7.4-23,10.79-1.69.73-4.23.77-5.96.15-3.43-1.26-4.49-4.75-2.36-7.79,3.01-4.31,6.07-8.71,9.8-12.44,10.57-10.56,21.52-20.78,32.29-31.17,3.5-3.37,6.89-6.82,10.15-10.68-3.65,1.59-7.31,3.12-10.92,4.78-23.99,11.07-47.96,22.16-70.23,36.16-.92.57-1.85,1.12-2.75,1.74-2.2,1.54-4.45,2.16-6.58.05-2.09-2.07-.9-4.11.55-5.9,3.04-3.76,6.21-7.4,9.31-11.11,7.11-8.47,14.22-16.93,21.85-26.02-1.36.11-1.94.04-2.38.22-18.11,7.62-36.25,15.21-54.26,23-4.09,1.78-7.79,4.34-11.67,6.54-1.96,1.1-3.98,2.02-6.1.38-2-1.54-1.89-3.43-1.32-5.63,3.74-14.61,10.01-28.08,19.44-40.26,1.14-1.47,1.58-3.41,2.77-4.8.93-1.08,2.51-1.69,3.81-2.49.86,1.26,2.35,2.49,2.4,3.78.05,1.58-.86,3.3-1.74,4.78-4.27,7.22-8.92,14.28-12.92,21.63-2.14,3.94-3.23,8.39-4.2,13.2,2.14-1.14,4.22-2.4,6.45-3.37,13.67-5.97,27.31-11.97,41.07-17.76,7.17-3.01,14.51-5.59,21.81-8.3,1.12-.42,2.35-.81,3.54-.82,3.24-.05,5.66,2.9,4.27,5.61-1.85,3.59-4,7.11-6.51,10.35-5.17,6.69-10.67,13.16-16.46,20.27,7.07-3.68,13.43-7.26,20.03-10.35,18.64-8.76,37.37-17.32,56.08-25.93,1.76-.81,3.59-1.5,5.33-2.31,2.22-1.04,4.23-1.15,5.9.86,1.72,2.05,1.43,4.09-.26,5.97-4.34,4.82-8.54,9.8-13.2,14.35-8.23,8.06-16.84,15.76-25.13,23.77-5.79,5.61-11.33,11.47-16.95,17.23-.55.57-.95,1.28-1.98,2.68,1.63-.53,2.49-.7,3.24-1.06,31.39-15.41,62.79-30.86,94.16-46.31,2.82-1.39,5.59-2.88,8.39-4.31.64-.33,1.28-.7,1.96-.92,2.22-.71,4.12-.33,5.42,1.65,1.39,2.09.2,3.65-1.48,4.71-4.65,2.97-9.44,5.79-14.2,8.63-4.64,2.77-9.33,5.46-13.84,8.54,5.13-1.65,10.26-3.32,15.39-4.93,17.21-5.39,34.42-10.78,51.66-16.09,5.7-1.76,11.51-3.24,17.23-4.95,3.01-.9,5.7-.82,7.31,2.05,1.56,2.8-.53,4.8-2.58,6.12-6.14,4-12.44,7.75-18.77,11.47-4.25,2.49-8.63,4.8-12.81,7.68.82-.18,1.67-.31,2.47-.55,10.21-2.93,20.4-5.85,30.59-8.81,6.19-1.8,12.26-2.33,17.96,1.39v4.84l.04-.02Z"/>
      <g class="cls-4">
        <path class="cls-1" d="M424.99,184.38c-1.31,1-1.97,2.39-1.97,4.17,0,1.1-.66,3.04-1.97,5.82-1.31,2.78-1.97,4.62-1.97,5.51,0,1.47-.42,2.36-1.26,2.68-.63.31-1,.67-1.1,1.06s.03.84.39,1.34c.37.5,1,1.1,1.89,1.81.89.71,2.12,1.59,3.7,2.64,5.98,4.09,10.51,8.78,13.58,14.05,3.07,5.27,3.69,9.46,1.85,12.55-1.05,1.89-3.62,3.53-7.71,4.92-4.09,1.39-8.71,2.19-13.85,2.4-5.3.26-8.46.92-9.48,1.97-1.02,1.05-1.59,4.28-1.69,9.68-.1,3.25-.52,5.21-1.26,5.86-.73.66-2.31.59-4.72-.2l-3.38-1.1c1.21-13.07,1.81-19.62,1.81-19.68l-3.94-2.83c-2.31-1.47-3.58-3.08-3.82-4.84-.24-1.76.62-3.42,2.56-5,1.15-1,1.94-1.5,2.36-1.5s1.23.5,2.44,1.5c1.47,1.21,2.44,1.44,2.91.71.58-.79,1.6-4.01,3.07-9.68l2.36-9.21-2.91-2.6c-2.15-2.26-3.74-5.68-4.76-10.27-1.02-4.59-.93-8.28.28-11.06.47-1.1,2.99-3.24,7.56-6.41,4.56-3.17,7.37-4.76,8.42-4.76,1.68,0,3.19-1,4.53-2.99,1.34-1.99,2.11-4.38,2.32-7.16.47-3.46,1.52-6.22,3.15-8.26,1.63-2.05,3.78-2.07,6.45-.08.94.58,1.44,1.39,1.5,2.44.05,1-.16,2.97-.63,5.9-.63,3.67-1.1,6.22-1.42,7.63-.26.58,1.23,2.12,4.49,4.64,2.89,2.47,5.17,5.14,6.85,8.03.84,1.78,1.26,3,1.26,3.66s-.42,1.38-1.26,2.16c-.37.32-1.1.68-2.2,1.1-1.05.37-2.2.7-3.46.98-1.26.29-2.49.49-3.7.59-1.21.11-2.2.13-2.99.08s-1.18-.22-1.18-.51.5-1.3,1.5-3.03c.68-.89,1-1.63.94-2.2s-.55-1.23-1.5-1.97c-.84-.79-1.54-1.23-2.09-1.34s-1.19.16-1.93.79ZM426.09,223.58c-1.31-1.47-2.99-2.86-5.04-4.17-3.25-1.99-5.22-3.12-5.9-3.38-1.1,0-2.19.81-3.27,2.44-1.08,1.63-1.61,3.15-1.61,4.56,0,2.1-.6,4.59-1.81,7.48-1.21,2.57-1.57,4.2-1.1,4.88,1.47,1.21,4.84,1.23,10.11.08,5.27-1.15,8.8-2.73,10.59-4.72.63-.89.79-1.95.47-3.19-.31-1.23-1.13-2.56-2.44-3.97ZM410.11,195.09c.68,0,1.26-.79,1.73-2.36.26-1,.3-1.69.12-2.09s-.51-.45-.98-.16c-.47.29-.89.88-1.26,1.77-.47,1.21-.68,1.98-.63,2.32.05.34.39.51,1.02.51Z"/>
        <path class="cls-1" d="M486.89,191.83c2.88-.72,4.81-1.44,5.8-2.16,1.17-.99,2.9-1.37,5.2-1.15,2.29.23,4.07,1.01,5.33,2.36.99,1.17,1.51,2.12,1.55,2.83.04.72-.43,2.02-1.42,3.92-1.35,2.88-3.78,6.57-7.29,11.07-2.61,3.06-5.17,6.93-7.7,11.61-2.52,4.5-4.68,8.1-6.48,10.8-2.88,4.05-4.32,6.64-4.32,7.76s-.63,2.27-1.89,3.44c-1.17.81-2.7,3.15-4.59,7.02-1.89,4.23-3.87,9.68-5.94,16.34-2.07,6.66-2.88,10.3-2.43,10.93.09.18.67-.04,1.75-.67,1.08-.72,2.52-1.71,4.32-2.97,1.89-1.44,3.87-2.97,5.94-4.59,7.38-6.12,13.37-10.26,17.96-12.42,2.97-1.26,5.4-2.02,7.29-2.29,1.89-.27,5.26-.22,10.12.13,6.84.63,11.25,1.73,13.23,3.31,1.98,1.58,2.97,4.75,2.97,9.52v6.62l-12.83,12.01c-8.37,7.92-13.37,12.02-14.99,12.29-1.35,0-2.61.63-3.78,1.89-1.98,2.34-8.33,4.14-19.04,5.4-5.22.63-8.64,1.3-10.26,2.03-2.97,1.62-6.17,1.35-9.58-.81-3.42-2.16-4.82-4.82-4.19-7.96.36-2.25,0-5.67-1.08-10.26-1.17-4.5-1.75-8.35-1.75-11.54s.63-7.22,1.89-12.08c1.26-4.68,2.47-8.41,3.65-11.21,1.17-2.97,3.87-8.73,8.1-17.28,5.4-10.89,10.03-19.39,13.91-25.51,1.98-3.24,3.51-6.97,4.59-11.21.72-2.52,1.39-4.18,2.03-5,.63-.81,1.93-1.53,3.92-2.16ZM495.39,283.9c7.83-5.49,11.92-8.95,12.29-10.4.09-.9-.14-1.51-.67-1.82-.54-.31-1.89-.38-4.05-.2-2.97,0-6.91,1.35-11.81,4.05-4.91,2.7-9.34,5.99-13.3,9.86-5.31,5.13-6.39,7.74-3.24,7.83,3.96.27,10.89-2.83,20.79-9.31Z"/>
        <path class="cls-1" d="M576.96,188.92c.81-.22,1.98-1.06,3.51-2.5,2.25-2.25,4.5-3.13,6.75-2.63,2.25.5,3.89,1.53,4.93,3.1,1.04,1.58,1.33,3.35.88,5.33-.45,1.35-.99,3.33-1.62,5.94-.54,2.52-1.12,4.86-1.75,7.02-.54,1.98-1.31,3.87-2.29,5.67-1.89,3.87-2.83,6.86-2.83,8.98s-.41,3.94-1.21,5.47c-.9,1.62-1.62,5.49-2.16,11.61-.18,3.96-.63,7.52-1.35,10.67-.72,3.33-1.48,6.66-2.29,9.99-.9,3.51-1.58,7.2-2.02,11.07-2.61,18.81-4.5,29.43-5.67,31.86-.72,1.62-2.18,2.34-4.39,2.16-2.21-.18-3.89-1.08-5.06-2.7-1.17-1.71-1.85-5.04-2.03-9.99-.18-4.95.22-7.96,1.21-9.04.54-.54,1.17-4,1.89-10.4.72-6.39,1.21-12.37,1.48-17.96.27-5.49.14-9-.4-10.53-.72-.72-3.83-.23-9.32,1.48-4.05,1.26-7.47,2.07-10.26,2.43-2.88.27-5.38.05-7.49-.67-2.12-.72-3.85-1.93-5.2-3.64-1.35-1.71-2.48-4-3.38-6.88-1.08-3.42-1.17-8.1-.27-14.04.9-5.94,2.47-10.57,4.72-13.91,2.25-3.6,5.04-6.97,8.37-10.12,3.24-3.06,6.43-5.35,9.58-6.88,3.24-1.44,7.31-2.32,12.22-2.63,4.9-.31,8.93.07,12.08,1.15,1.44.63,2.57.83,3.38.61ZM568.18,206.41c-.27-.45-.54-.99-.81-1.62-.72-2.25-2.34-3.33-4.86-3.24-2.7.18-5.15.83-7.36,1.96-2.21,1.12-4.84,3.22-7.9,6.28-3.87,3.87-6.12,7.65-6.75,11.34-.63,3.69-.31,6.14.95,7.36,1.26,1.22,3.69,1.6,7.29,1.15,3.87-.63,6.95-1.73,9.25-3.31,2.29-1.58,4.39-4.03,6.28-7.36,2.34-3.96,4.18-6.84,5.54-8.64,1.35-1.44,1.48-2.16.4-2.16-.27,0-.58-.16-.94-.47-.36-.31-.72-.74-1.08-1.28Z"/>
        <path class="cls-1" d="M624.13,188.75c.47-.13,1.15-.62,2.05-1.46,1.31-1.31,2.62-1.82,3.94-1.54,1.31.29,2.27.89,2.87,1.81.6.92.77,1.95.51,3.11-.26.79-.58,1.94-.94,3.46-.31,1.47-.66,2.83-1.02,4.09-.32,1.16-.76,2.26-1.34,3.31-1.1,2.26-1.65,4-1.65,5.23s-.24,2.3-.71,3.19c-.53.94-.94,3.2-1.26,6.77-.1,2.31-.37,4.38-.79,6.22-.42,1.94-.87,3.88-1.34,5.82-.53,2.05-.92,4.2-1.18,6.45-1.52,10.97-2.62,17.16-3.31,18.57-.42.95-1.27,1.36-2.56,1.26-1.29-.11-2.27-.63-2.95-1.57-.68-1-1.08-2.94-1.18-5.82-.11-2.89.13-4.64.71-5.27.32-.31.68-2.33,1.1-6.06s.71-7.21.87-10.47c.16-3.2.08-5.25-.24-6.14-.42-.42-2.23-.13-5.43.87-2.36.73-4.35,1.21-5.98,1.42-1.68.16-3.13.03-4.37-.39-1.23-.42-2.24-1.13-3.03-2.12-.79-1-1.44-2.33-1.97-4.01-.63-1.99-.68-4.72-.16-8.19.52-3.46,1.44-6.16,2.75-8.11,1.31-2.1,2.94-4.07,4.88-5.9,1.89-1.78,3.75-3.12,5.59-4.01,1.89-.84,4.26-1.35,7.12-1.53,2.86-.18,5.21.04,7.04.67.84.37,1.5.49,1.97.35ZM619.02,198.94c-.16-.26-.31-.58-.47-.94-.42-1.31-1.37-1.94-2.83-1.89-1.57.11-3,.49-4.29,1.14-1.29.66-2.82,1.88-4.6,3.66-2.26,2.26-3.57,4.46-3.94,6.61-.37,2.15-.18,3.58.55,4.29.73.71,2.15.93,4.25.67,2.26-.37,4.05-1.01,5.39-1.93,1.34-.92,2.56-2.35,3.66-4.29,1.36-2.31,2.44-3.99,3.23-5.04.79-.84.87-1.26.24-1.26-.16,0-.34-.09-.55-.28s-.42-.43-.63-.75Z"/>
        <path class="cls-1" d="M677.34,190.25c2.07-1.5,3.63-2.48,4.68-2.95,1.36-.73,3.08-1.29,5.16-1.65,2.07-.37,3.87-.45,5.39-.24.73.11,1.27.26,1.61.47s.49.5.43.87c-.05.37-.45.85-1.18,1.46-.73.6-1.55,1.12-2.44,1.54-2.62,1.42-5.27,3.2-7.95,5.35-2.94,2.47-4.87,3.74-5.79,3.82-.92.08-2.35.56-4.29,1.46-2.05.68-3.67,1.08-4.88,1.18-1.26,0-3.12.39-5.59,1.18-1.52.53-2.61,1.04-3.27,1.54-.66.5-1.19,1.22-1.61,2.16-.63,1.47-1.65,3.33-3.07,5.59-1.21,1.94-1.55,3.2-1.02,3.78s2.49,1.02,5.9,1.34c2.1.1,3.8.29,5.12.55,1.31.26,2.53.6,3.66,1.02s2.14.94,3.03,1.57c.84.63,1.73,1.44,2.68,2.44,1.52,1.63,2.43,2.77,2.72,3.42.29.66.38,1.75.28,3.27-.58,4.2-1.21,6.98-1.89,8.34-.63,1.42-2.54,3.83-5.75,7.24-6.24,6.77-10.18,10.18-11.81,10.23-.58,0-1.55.52-2.91,1.57-.84.73-1.92,1.15-3.23,1.26-1.37.11-4.54.13-9.52.08-2.62-.05-4.74-.12-6.34-.2-1.6-.08-2.66-.17-3.19-.28-1.1-.21-2.15-.81-3.15-1.81-2.94-3.15-2.41-5.38,1.57-6.69,2.05-.63,3.38-.63,4.01,0,.73.53,3.1.94,7.08,1.26,1.68.21,3.13.24,4.37.08,1.23-.16,2.22-.38,2.95-.67.73-.29,1.97-.98,3.7-2.08,5.51-3.25,9.76-7.48,12.75-12.67,2.73-4.83,2.96-8.13.71-9.92-.26-.31-.6-.55-1.02-.71-1.26-.47-3.08-.58-5.47-.31-2.39.26-4.13.73-5.23,1.42-1.21.84-2.18,1.26-2.91,1.26-.68,0-1.89.89-3.62,2.68-3.36,3.46-6.14,3.62-8.34.47-.94-1.31-1.46-2.39-1.54-3.23-.08-.84.25-1.99.98-3.46,1.78-3.57,3.51-7.61,5.19-12.12,1.68-4.46,2.41-6.95,2.2-7.48-.52-.58-.52-1.34,0-2.28.37-.63,1.39-1.21,3.07-1.73,1.73-.58,5.09-1.42,10.07-2.52,1.99-.32,3.51-.64,4.56-.98,1.05-.34,2.2-.77,3.46-1.3,1.26-.58,2.49-1.08,3.7-1.5,1.89-.58,3.87-1.61,5.94-3.11Z"/>
        <path class="cls-1" d="M710.12,177.51h3.6v8.95l8.53-2.88,1.14,3.48-8.47,2.88,5.34,7.15-2.94,2.28-5.4-7.38-5.22,7.38-3-2.28,5.22-7.15-8.47-2.88,1.14-3.48,8.53,2.88v-8.95Z"/>
      </g>
    </g>
  </g>
</svg>