<?xml version="1.0" encoding="UTF-8"?>
<svg id="Layer_2" data-name="Layer 2" xmlns="http://www.w3.org/2000/svg" viewBox="0 0 869 455.75">
  <defs>
    <style>
      .cls-1 {
        fill: #ed1c24;
      }

      .cls-1, .cls-2, .cls-3 {
        stroke-width: 0px;
      }

      .cls-2 {
        fill: #2459a9;
      }

      .cls-3 {
        fill: #fff;
      }
    </style>
  </defs>
  <g id="WISE_BUYS" data-name="WISE BUYS">
    <g id="WISE_BUYS-2" data-name="WISE BUYS">
      <rect class="cls-2" width="868" height="228"/>
      <rect class="cls-1" y="227.75" width="868" height="228"/>
      <g>
        <path class="cls-3" d="M48.41,59.34h10.4l26.93,95.93h.31l27.39-95.93h12.85l27.39,95.93h.31l26.93-95.93h10.4l-31.52,108.32h-12.39l-27.39-96.39h-.31l-27.39,96.39h-12.39l-31.52-108.32Z"/>
        <path class="cls-3" d="M206.92,59.34h10.1v108.32h-10.1V59.34Z"/>
        <path class="cls-3" d="M249.6,147.62c2.65,4.59,6.09,8.01,10.33,10.25,4.23,2.24,9.05,3.37,14.46,3.37,3.37,0,6.53-.51,9.49-1.53,2.96-1.02,5.53-2.45,7.73-4.28,2.19-1.84,3.93-4.05,5.2-6.66,1.27-2.6,1.91-5.53,1.91-8.8,0-3.77-.79-6.89-2.37-9.33-1.58-2.45-3.7-4.46-6.35-6.04-2.65-1.58-5.64-2.93-8.95-4.05-3.32-1.12-6.73-2.24-10.25-3.37-3.52-1.12-6.94-2.4-10.25-3.82-3.32-1.43-6.3-3.29-8.95-5.58-2.65-2.29-4.77-5.18-6.35-8.64-1.58-3.47-2.37-7.75-2.37-12.85,0-4.79.94-9.05,2.83-12.78,1.89-3.72,4.44-6.83,7.65-9.33,3.21-2.5,6.91-4.38,11.09-5.66,4.18-1.27,8.57-1.91,13.16-1.91,5.91,0,11.4,1.05,16.45,3.14,5.05,2.09,9.41,5.58,13.08,10.48l-8.72,6.27c-2.55-3.57-5.53-6.25-8.95-8.03-3.42-1.78-7.47-2.68-12.16-2.68-3.27,0-6.38.44-9.33,1.3-2.96.87-5.53,2.14-7.73,3.83-2.19,1.68-3.95,3.8-5.28,6.35-1.33,2.55-1.99,5.56-1.99,9.03,0,5.41,1.38,9.56,4.13,12.47,2.75,2.91,6.2,5.2,10.33,6.88,4.13,1.68,8.62,3.16,13.46,4.44,4.84,1.28,9.33,2.98,13.46,5.13s7.57,5.13,10.33,8.95c2.75,3.82,4.13,9.1,4.13,15.84,0,4.9-.92,9.23-2.75,13-1.84,3.77-4.31,6.96-7.42,9.56-3.11,2.6-6.71,4.57-10.79,5.89-4.08,1.32-8.31,1.99-12.7,1.99-7.14,0-13.72-1.25-19.74-3.75-6.02-2.5-11.17-6.71-15.45-12.62l9.64-6.43Z"/>
        <path class="cls-3" d="M331.76,59.34h66.25v9.18h-56.15v38.56h52.63v9.18h-52.63v42.23h58.6v9.18h-68.7V59.34Z"/>
        <path class="cls-3" d="M462.27,59.34h31.21c4.08,0,8.21.33,12.39.99,4.18.66,7.93,2.04,11.25,4.13,3.31,2.09,6.02,5,8.11,8.72,2.09,3.72,3.14,8.64,3.14,14.76,0,5.51-1.63,10.3-4.9,14.38-3.27,4.08-8.11,6.78-14.54,8.11v.31c3.57.31,6.83,1.15,9.79,2.52,2.96,1.38,5.51,3.21,7.65,5.51,2.14,2.29,3.8,5.02,4.97,8.19,1.17,3.16,1.76,6.63,1.76,10.4,0,6.22-1.2,11.3-3.59,15.22-2.4,3.93-5.41,7.01-9.03,9.26-3.62,2.24-7.55,3.77-11.78,4.59-4.23.82-8.19,1.22-11.86,1.22h-34.58V59.34ZM472.37,106.16h20.96c5.2,0,9.43-.64,12.7-1.91,3.26-1.27,5.81-2.83,7.65-4.67s3.06-3.8,3.67-5.89c.61-2.09.92-4,.92-5.74,0-3.77-.64-6.91-1.91-9.41-1.28-2.5-2.98-4.49-5.13-5.97-2.14-1.48-4.64-2.52-7.5-3.14-2.86-.61-5.87-.92-9.03-.92h-22.34v37.64ZM472.37,158.49h23.1c5.91,0,10.68-.71,14.31-2.14,3.62-1.43,6.4-3.21,8.34-5.35,1.94-2.14,3.24-4.41,3.9-6.81.66-2.4.99-4.56.99-6.5,0-3.98-.76-7.39-2.29-10.25-1.53-2.85-3.52-5.18-5.97-6.96-2.45-1.78-5.23-3.08-8.34-3.9-3.11-.81-6.25-1.22-9.41-1.22h-24.63v43.15Z"/>
        <path class="cls-3" d="M635.62,126.2c0,5.81-.66,11.37-1.99,16.68-1.33,5.3-3.54,10-6.66,14.08-3.11,4.08-7.19,7.34-12.24,9.79-5.05,2.45-11.25,3.67-18.59,3.67s-13.54-1.22-18.59-3.67c-5.05-2.45-9.13-5.71-12.24-9.79-3.11-4.08-5.33-8.77-6.66-14.08-1.33-5.3-1.99-10.86-1.99-16.68V59.34h10.1v64.26c0,3.88.36,8.01,1.07,12.39.71,4.39,2.12,8.47,4.21,12.24,2.09,3.77,5.05,6.89,8.87,9.33,3.83,2.45,8.9,3.67,15.22,3.67s11.4-1.22,15.22-3.67c3.82-2.45,6.78-5.56,8.87-9.33,2.09-3.77,3.49-7.85,4.21-12.24.71-4.38,1.07-8.52,1.07-12.39V59.34h10.1v66.86Z"/>
        <path class="cls-3" d="M687.33,121l-39.78-61.66h12.09l32.74,51.41,33.51-51.41h11.32l-39.78,61.66v46.67h-10.1v-46.67Z"/>
        <path class="cls-3" d="M754.04,147.62c2.65,4.59,6.09,8.01,10.33,10.25,4.23,2.24,9.05,3.37,14.46,3.37,3.37,0,6.53-.51,9.49-1.53,2.96-1.02,5.53-2.45,7.73-4.28,2.19-1.84,3.93-4.05,5.2-6.66,1.27-2.6,1.91-5.53,1.91-8.8,0-3.77-.79-6.89-2.37-9.33-1.58-2.45-3.7-4.46-6.35-6.04-2.65-1.58-5.64-2.93-8.95-4.05-3.32-1.12-6.73-2.24-10.25-3.37-3.52-1.12-6.94-2.4-10.25-3.82-3.32-1.43-6.3-3.29-8.95-5.58-2.65-2.29-4.77-5.18-6.35-8.64-1.58-3.47-2.37-7.75-2.37-12.85,0-4.79.94-9.05,2.83-12.78,1.89-3.72,4.44-6.83,7.65-9.33,3.21-2.5,6.91-4.38,11.09-5.66,4.18-1.27,8.57-1.91,13.16-1.91,5.91,0,11.4,1.05,16.45,3.14,5.05,2.09,9.41,5.58,13.08,10.48l-8.72,6.27c-2.55-3.57-5.53-6.25-8.95-8.03-3.42-1.78-7.47-2.68-12.16-2.68-3.27,0-6.38.44-9.33,1.3-2.96.87-5.54,2.14-7.73,3.83-2.2,1.68-3.95,3.8-5.28,6.35-1.33,2.55-1.99,5.56-1.99,9.03,0,5.41,1.38,9.56,4.13,12.47,2.75,2.91,6.2,5.2,10.33,6.88s8.62,3.16,13.46,4.44c4.84,1.28,9.33,2.98,13.46,5.13,4.13,2.14,7.57,5.13,10.33,8.95,2.75,3.82,4.13,9.1,4.13,15.84,0,4.9-.92,9.23-2.75,13-1.84,3.77-4.31,6.96-7.42,9.56-3.11,2.6-6.71,4.57-10.79,5.89-4.08,1.32-8.31,1.99-12.7,1.99-7.14,0-13.72-1.25-19.74-3.75-6.02-2.5-11.17-6.71-15.45-12.62l9.64-6.43Z"/>
      </g>
      <g>
        <path class="cls-3" d="M91.14,320.11c-1.48-1.87-3.49-3.26-6.03-4.15-2.54-.9-4.93-1.35-7.2-1.35-1.33,0-2.69.16-4.09.47-1.4.31-2.73.8-3.98,1.46-1.25.66-2.26,1.54-3.04,2.63-.78,1.09-1.17,2.42-1.17,3.98,0,2.5.94,4.41,2.81,5.73,1.87,1.33,4.23,2.46,7.08,3.39,2.85.94,5.91,1.87,9.18,2.81s6.34,2.26,9.18,3.98c2.85,1.72,5.21,4.02,7.08,6.9,1.87,2.89,2.81,6.75,2.81,11.58s-.86,8.62-2.57,12.05c-1.72,3.43-4.04,6.28-6.96,8.54-2.93,2.26-6.32,3.94-10.18,5.03-3.86,1.09-7.94,1.64-12.23,1.64-5.38,0-10.37-.82-14.98-2.46-4.6-1.64-8.89-4.29-12.87-7.96l12.99-14.27c1.87,2.5,4.23,4.43,7.08,5.79,2.85,1.37,5.79,2.05,8.83,2.05,1.48,0,2.98-.18,4.5-.53s2.88-.88,4.1-1.58c1.21-.7,2.18-1.6,2.92-2.69.74-1.09,1.11-2.38,1.11-3.86,0-2.5-.96-4.46-2.87-5.91-1.91-1.44-4.31-2.67-7.2-3.69-2.89-1.01-6.01-2.03-9.36-3.04-3.35-1.01-6.48-2.38-9.36-4.09-2.89-1.71-5.29-3.98-7.2-6.79-1.91-2.81-2.87-6.51-2.87-11.12s.88-8.35,2.63-11.7c1.75-3.35,4.1-6.16,7.02-8.42,2.93-2.26,6.3-3.96,10.12-5.09,3.82-1.13,7.76-1.7,11.82-1.7,4.68,0,9.2.66,13.57,1.99,4.37,1.33,8.31,3.55,11.82,6.67l-12.52,13.69Z"/>
        <path class="cls-3" d="M144.61,299.87h15.09l36.04,82.84h-20.59l-7.14-17.55h-32.17l-6.9,17.55h-20.12l35.8-82.84ZM151.63,323.97l-10.06,25.74h20.24l-10.18-25.74Z"/>
        <path class="cls-3" d="M204.74,299.87h18.25v65.99h33.81v16.85h-52.06v-82.84Z"/>
        <path class="cls-3" d="M267.57,299.87h56.28v16.85h-38.02v15.44h35.92v16.85h-35.92v16.85h40.13v16.85h-58.38v-82.84Z"/>
        <path class="cls-3" d="M381.53,320.11c-1.48-1.87-3.49-3.26-6.03-4.15-2.54-.9-4.93-1.35-7.2-1.35-1.33,0-2.69.16-4.09.47-1.4.31-2.73.8-3.98,1.46-1.25.66-2.26,1.54-3.04,2.63-.78,1.09-1.17,2.42-1.17,3.98,0,2.5.94,4.41,2.81,5.73,1.87,1.33,4.23,2.46,7.08,3.39,2.85.94,5.91,1.87,9.18,2.81s6.34,2.26,9.18,3.98c2.85,1.72,5.21,4.02,7.08,6.9,1.87,2.89,2.81,6.75,2.81,11.58s-.86,8.62-2.57,12.05c-1.72,3.43-4.04,6.28-6.96,8.54-2.93,2.26-6.32,3.94-10.18,5.03-3.86,1.09-7.94,1.64-12.23,1.64-5.38,0-10.37-.82-14.98-2.46-4.6-1.64-8.89-4.29-12.87-7.96l12.99-14.27c1.87,2.5,4.23,4.43,7.08,5.79,2.85,1.37,5.79,2.05,8.83,2.05,1.48,0,2.98-.18,4.5-.53s2.88-.88,4.1-1.58c1.21-.7,2.18-1.6,2.92-2.69.74-1.09,1.11-2.38,1.11-3.86,0-2.5-.96-4.46-2.87-5.91-1.91-1.44-4.31-2.67-7.2-3.69-2.89-1.01-6.01-2.03-9.36-3.04-3.35-1.01-6.48-2.38-9.36-4.09-2.89-1.71-5.29-3.98-7.2-6.79-1.91-2.81-2.87-6.51-2.87-11.12s.88-8.35,2.63-11.7c1.75-3.35,4.1-6.16,7.02-8.42,2.93-2.26,6.3-3.96,10.12-5.09,3.82-1.13,7.76-1.7,11.82-1.7,4.68,0,9.2.66,13.57,1.99,4.37,1.33,8.31,3.55,11.82,6.67l-12.52,13.69Z"/>
        <path class="cls-3" d="M443.07,299.87h56.28v16.85h-38.03v15.44h35.92v16.85h-35.92v16.85h40.13v16.85h-58.38v-82.84Z"/>
        <path class="cls-3" d="M507.88,299.87h20.83l20.48,54.29h.23l20.83-54.29h19.54l-34.16,82.84h-14.62l-33.11-82.84Z"/>
        <path class="cls-3" d="M599.14,299.87h56.28v16.85h-38.03v15.44h35.92v16.85h-35.92v16.85h40.13v16.85h-58.38v-82.84Z"/>
        <path class="cls-3" d="M672.15,299.87h24.8l35.22,57.56h.23v-57.56h18.25v82.84h-23.87l-36.15-58.97h-.23v58.97h-18.25v-82.84Z"/>
        <path class="cls-3" d="M783.53,316.01h-23.63v-16.15h65.52v16.15h-23.63v66.69h-18.25v-66.69Z"/>
      </g>
    </g>
  </g>
</svg>